<svg width="207" height="244" viewBox="0 0 207 244" fill="none" xmlns="http://www.w3.org/2000/svg">
<path d="M71.757 182.81V186.716H63.987V212H59.199V186.716H51.387V182.81H71.757ZM94.2041 206.036H81.9821L79.8821 212H74.8841L85.3421 182.768H90.8861L101.344 212H96.3041L94.2041 206.036ZM92.8601 202.13L88.1141 188.564L83.3261 202.13H92.8601ZM127.017 191.21C126.261 189.754 125.211 188.662 123.867 187.934C122.523 187.178 120.969 186.8 119.205 186.8C117.273 186.8 115.551 187.234 114.039 188.102C112.527 188.97 111.337 190.202 110.469 191.798C109.629 193.394 109.209 195.242 109.209 197.342C109.209 199.442 109.629 201.304 110.469 202.928C111.337 204.524 112.527 205.756 114.039 206.624C115.551 207.492 117.273 207.926 119.205 207.926C121.809 207.926 123.923 207.198 125.547 205.742C127.171 204.286 128.165 202.312 128.529 199.82H117.567V195.998H133.653V199.736C133.345 202.004 132.533 204.09 131.217 205.994C129.929 207.898 128.235 209.424 126.135 210.572C124.063 211.692 121.753 212.252 119.205 212.252C116.461 212.252 113.955 211.622 111.687 210.362C109.419 209.074 107.613 207.296 106.269 205.028C104.953 202.76 104.295 200.198 104.295 197.342C104.295 194.486 104.953 191.924 106.269 189.656C107.613 187.388 109.419 185.624 111.687 184.364C113.983 183.076 116.489 182.432 119.205 182.432C122.313 182.432 125.071 183.202 127.479 184.742C129.915 186.254 131.679 188.41 132.771 191.21H127.017ZM143.164 186.674V195.242H153.244V199.148H143.164V208.094H154.504V212H138.376V182.768H154.504V186.674H143.164Z" fill="black"/>
<path d="M81.4008 71.1453C81.8521 73.7888 81.7081 75.8984 79.8518 77.9609C78.813 79.1152 80.6777 80.9587 80.2391 81.4461C79.0153 82.8058 74.8986 81.638 74.5852 79.8971C73.7987 75.5272 76.4495 74.8635 80.2391 74.0884C81.8597 73.7569 82.197 74.4918 82.3302 76.1795C82.5906 79.4781 80.616 81.7495 77.9156 83.3823C74.8317 85.247 69.0198 86.6415 67.7697 81.9883C65.6596 74.1341 71.894 70.7217 78.4577 70.4483C79.5591 70.4024 78.4375 69.9558 78.8062 69.4027C79.3741 68.5509 82.3133 68.9674 81.6331 68.2022C80.3711 66.7824 73.6758 69.0342 77.3734 65.3366C77.8737 64.8363 80.3241 64.1748 78.7675 64.1748C77.3476 64.1748 73.0879 64.1748 74.5078 64.1748C78.2685 64.1748 67.1549 65.7747 66.0658 65.9562C58.8577 67.1575 68.471 66.7654 70.6353 66.266C74.138 65.4577 68.3734 66.8127 67.8471 66.963C66.2415 67.4218 63.4613 67.7861 62.1933 69.0542C61.248 69.9995 65.4274 69.7512 65.4462 69.7512C66.5176 69.7512 67.589 69.7512 68.6603 69.7512C69.3187 69.7512 70.6353 69.0929 70.6353 69.7512C70.6353 70.4327 62.9742 73.8839 63.1614 73.7399C64.7441 72.5224 66.1469 71.0972 68.002 70.2934C68.1965 70.2091 69.3063 69.7512 69.125 69.7512C66.6013 69.7512 61.8574 73.1563 59.8311 72.3458C57.7452 71.5114 64.0516 70.4483 66.2981 70.4483C69.7148 70.4483 64.7528 72.5572 64.0521 72.8492C64.0521 72.8492 58.0882 75.8244 59.4051 76.3732C62.9907 77.8672 69.2955 75.1931 72.5715 74.1658C74.8107 73.4637 79.3535 71.8935 81.6331 71.0679C83.0836 70.5426 87.3758 69.4239 85.8542 69.1703C82.9503 68.6864 79.0628 70.345 76.2117 70.8355C72.3853 71.4938 75.6664 69.8065 77.1411 68.8605C84.1395 64.371 91.3533 60.8022 99.1368 57.824C104.144 55.9081 110.332 53.0995 115.866 53.0995C124.826 53.0995 98.26 57.0816 89.3007 57.2044C86.2386 57.2463 90.405 56.325 91.1982 56.0426C97.3807 53.8421 103.657 52.0512 109.67 49.382C115.182 46.9352 120.494 44.2415 126.244 42.3728C129.71 41.2465 120.356 42.8611 120.281 42.8762C114.73 43.9862 108.977 45.6236 104.016 48.4138C102.78 49.1091 99.7066 52.0075 100.531 50.8535C106.036 43.1466 115.7 40.0257 124.54 37.9969C136.586 35.2323 101.612 47.2324 90.1526 51.8604C90.0901 51.8856 84.0372 54.0538 84.4213 54.726C85.3844 56.4114 99.0195 52.9628 100.299 52.7897C106.841 51.9044 113.456 51.3574 120.048 50.9697C121.188 50.9026 122.178 50.8015 120.358 51.0859C115.839 51.792 111.401 52.9309 106.882 53.6417C105.579 53.8466 96.8531 54.6658 97.8201 54.1451C103.735 50.96 109.099 46.9425 115.169 43.9605C125.775 38.7496 136.898 35.4288 148.511 33.3499C152.977 32.5503 166.043 29.6143 162.026 31.7234C156.157 34.8046 149.039 36.3535 142.741 38.2679C142.263 38.4133 131.137 42.5164 130.659 41.5596C129.679 39.6006 138.067 33.8696 138.985 33.195C142.541 30.5814 146.299 28.3063 149.944 25.8373C150.972 25.1404 147.761 27.0265 146.691 27.6573C143.883 29.3118 140.807 30.4568 138.016 32.1107C137.86 32.2035 142.394 29.5927 143.128 29.2451C147.432 27.2066 152.747 24.6303 157.611 24.4432C159.906 24.3549 155.276 27.8185 155.172 27.8897C153.902 28.7555 152.975 29.2371 151.609 29.9034C150.773 30.3109 148.26 30.6881 149.092 31.1039C149.683 31.3995 150.768 30.278 151.415 30.8328C154.205 33.2236 142.272 41.7192 140.805 43.186C138.534 45.4567 152.29 44.1819 154.087 44.735C156.104 45.3556 150.439 49.171 150.331 49.2271C145.072 51.9551 138.804 52.8413 133.06 53.9902C127.306 55.141 132.196 55.025 134.918 54.6485C142.107 53.6543 149.171 51.882 156.256 50.3501C158.123 49.9464 163.036 48.1212 161.948 49.6918C159.855 52.7155 150.942 53.9449 147.853 54.6873C141.414 56.2344 134.766 57.6688 128.18 58.4436C123.895 58.9477 131.343 56.3992 131.472 56.3524C139.44 53.455 147.686 51.1941 156.062 49.8467C159.491 49.2951 164.499 48.0868 168.028 48.9173C170.786 49.5662 166.387 52.1684 165.976 52.3251C159.647 54.7383 152.515 55.835 145.839 56.7784C144.44 56.9761 141.9 57.2552 140.379 57.5529C139.618 57.7018 137.825 58.9824 138.171 58.2887C138.688 57.2558 142.529 55.3193 143.67 55.423C147.35 55.7576 137.544 59.7101 134.067 60.9607C126.482 63.6884 118.408 65.0938 110.522 66.6532C110.049 66.7468 104.162 67.1594 103.822 68.0086C103.665 68.4011 110.484 68.3571 110.677 68.3571C113.426 68.3571 121.422 67.321 118.925 68.4733C115.385 70.1072 111.153 70.9929 107.346 71.6875C104.301 72.2431 101.3 72.2728 98.2461 72.5781C96.1987 72.7829 98.69 72.23 99.524 71.8424C103.454 70.0157 116.287 68.0283 112.381 69.9061C107.498 72.2536 100.642 71.6924 95.3805 72.1909C92.6723 72.4474 84.8539 74.453 87.287 73.2364C96.2658 68.747 108.314 65.0462 118.422 64.8719C120.626 64.8339 118.105 65.998 117.454 66.3047C113.246 68.2847 108.622 69.7544 104.171 71.0679C101.824 71.7604 99.2963 72.6233 96.8907 73.0815C93.7105 73.6873 102.649 69.962 105.797 69.2091C106.142 69.1267 115.967 67.5763 115.943 67.815C115.787 69.3771 107.254 70.5573 106.223 70.7581C102.991 71.3877 99.5066 71.7373 96.3486 72.6943C95.7954 72.8619 101.75 73.2364 102.428 73.2364C105.187 73.2364 110.518 72.3073 113 73.9335C114.493 74.9117 107.537 77.7215 107.424 77.7673C103.707 79.2652 100.068 80.4237 96.1162 81.0589C94.8968 81.2548 101.625 79.7794 102.545 79.5873C102.622 79.5711 109.084 78.6193 108.818 79.1226C108.027 80.6167 104.574 80.9053 103.164 81.2138C98.8647 82.1543 106.479 76.4969 106.727 76.3344C114.075 71.519 123.059 70.1231 131.433 68.086C134.812 67.2641 137.942 66.1874 141.192 65.0268C142.396 64.5966 136.15 67.1601 135.616 67.3503C127.117 70.3732 116.891 75.5161 107.656 75.3276C105.405 75.2816 107.34 71.8034 107.811 70.9904C110.69 66.0274 115.75 62.4559 120.59 59.6053C124.157 57.5052 128.001 55.9238 131.588 53.874C133.505 52.7788 127.251 54.6981 125.082 55.1132C124.763 55.1744 120.64 56.4502 120.552 55.9652C120.296 54.5611 121.409 52.4346 122.139 51.3182C122.591 50.6276 125.192 48.5729 123.572 49.653C119.605 52.2979 114.552 53.9048 110.212 55.8103C98.7039 60.8627 87.8336 66.7653 76.9862 73.0815C76.3564 73.4483 72.3981 76.1731 75.747 74.708C83.4453 71.34 91.6353 69.9441 99.9887 69.364C101.829 69.2362 114.528 67.5781 108.043 72.036C102.325 75.9673 95.694 78.643 89.3781 81.4461C87.7169 82.1834 74.2704 88.8461 73.8882 86.1705C73.2423 81.6493 80.414 81.1634 77.4509 83.9245C76.2765 85.0188 73.0515 86.0056 71.4485 85.6284C70.1838 85.3308 69.8993 82.2006 69.551 81.2138C68.2138 77.425 67.0212 84.2827 65.6785 85.7833C64.5618 87.0314 65.4462 92.444 65.4462 88.3968C63.347 86.9195 57.6643 70.3708 62.1933 81.0589C66.1045 80.1295 68.7894 95.7293 69.6285 95.2321M69.6285 95.2321C73.0997 93.1751 71.0918 87.3251 74.2754 91.7469C76.8873 95.3745 73.6968 98.325 76.6376 91.7082C77.7447 89.2173 79.3365 86.9781 82.0978 86.3254C82.3859 86.2574 86.0483 85.7108 85.6605 86.2093C84.2685 87.999 78.8316 87.6173 78.0317 89.617C77.181 91.7439 76.2053 91.3794 73.772 92.444C69.8192 94.1733 76.3209 93.4508 77.7219 93.4508C78.2857 93.4508 74.9608 94.6393 74.0431 94.8062C73.1517 94.9682 70.1536 94.3132 69.6285 95.2321ZM69.6285 95.2321C68.2503 97.6439 74.9167 94.3737 75.6695 94.1478C80.0436 92.8356 83.0894 90.3605 86.9772 88.4166C88.2617 87.7743 89.0542 86.3894 90.3075 85.9382C91.8084 85.3979 93.7573 85.3275 95.3417 84.9313C101.131 83.4841 106.375 78.0366 110.135 73.6237C112.653 70.6676 115.483 67.8095 117.802 64.717C121.259 60.1082 124.902 57.4945 129.42 54.1064C133.694 50.9007 136.421 46.0977 140.185 42.334C140.623 41.8958 142.561 39.6903 142.431 39.8557C139.552 43.5205 135.63 46.1473 131.743 48.6462C127.128 51.613 124.247 53.0221 119.003 53.0221C109.396 53.0221 99.3281 58.7724 90.385 61.9288C87.9413 62.7913 85.3822 63.4778 82.7949 63.4778C78.639 63.4778 83.5417 62.8423 85.1958 62.742C90.3497 62.4297 91.9592 58.6633 96.1937 56.5461C104.478 52.4041 114.442 52.5213 123.069 49.1883C127.832 47.3482 133.878 44.3552 137.203 40.4753C142.601 34.1781 151.55 33.2773 156.333 25.8373C157.916 23.3747 159.363 22.8996 160.206 19.9511C160.51 18.8854 162.832 20.9782 163.304 21.3452C165.497 23.0508 165.794 25.871 167.138 28.0833C169.335 31.7025 169.168 36.4214 170.468 40.3204C171.276 42.745 173.624 45.8863 172.017 48.2977C167.067 55.7218 154.364 55.8644 146.226 56.6622C143.603 56.9194 141.442 57.5902 140.108 59.9926C139.473 61.1342 138.227 65.0888 140.495 62.5484C143.835 58.8074 147.219 55.0673 150.873 51.628C152.681 49.9261 154.826 48.5432 156.256 46.4776C157.262 45.0245 159.182 42.9363 160.516 41.8694C162.121 40.5852 160.864 33.6564 160.864 35.7121C160.864 39.4991 160.483 45.7576 158.657 49.2271C156.239 53.8218 149.824 57.66 145.878 60.9994C144.807 61.9049 143.402 62.3696 142.044 62.6259C140.653 62.8883 137.229 64.6277 137.862 63.3616C138.7 61.6843 146.688 59.5746 148.588 58.2499C151.939 55.9144 155.483 53.978 158.773 51.628" stroke="url(#paint0_linear)" stroke-width="10" stroke-linecap="round"/>
<path d="M104 91.4757C109.818 91.4757 111.129 89.4863 116.795 89.2684C118.61 89.1986 123.506 87.9142 124.928 86.7513C125.892 85.9625 127.406 83.9324 127.406 82.6464C127.406 80.7883 129.19 80.9573 130.504 80.2068C131.383 79.7043 135.03 77.3565 132.982 77.4186C129.128 77.5354 124.191 80.3202 120.978 82.2979C118.259 83.9706 115.045 83.563 114.123 86.79C113.502 88.9642 108.218 85.6546 107.927 91.4757C107.876 92.5023 109.155 100.806 108.198 101.079C107.176 101.371 106.495 99.1452 106.495 98.33C106.495 96.5057 105.933 95.5428 105.41 93.4506C104.887 91.3561 108.188 96.7603 109.67 98.33C112.562 101.393 113.002 105.646 115.246 109.173C115.754 109.971 116.266 111.926 117.337 112.232C119.432 112.831 116.09 114.231 114.549 112.271C113.378 110.78 112.52 108.89 112.11 107.043C111.996 106.53 111.02 102.874 112.071 104.913C114.504 109.637 114.62 110.18 119.738 110.18C124.517 110.18 132.271 111.289 132.944 104.565C133.737 96.6303 125.999 98.33 120.59 98.33C116.28 98.33 116.523 97.3878 116.911 101.66C117.02 102.851 117.381 105.33 119.196 103.442C120.447 102.141 120.308 98.4467 122.527 98.33C123.275 98.2906 126.82 99.2656 124.695 99.5692C121.242 100.062 119.246 94.5661 118.189 92.0566C117.644 90.7607 119.838 91.9884 120.126 92.1727C122.661 93.7951 135.452 95.8536 137 98.33C140.346 103.683 123.886 97.1172 121.597 95.6967C114.123 94.4962 119.83 97.9816 121.094 99.9564C121.907 101.227 124.314 104.68 123.572 101.118C122.512 96.0283 128.183 102.084 129.342 102.899C130.881 103.983 129.935 103.424 127.793 104.061C125.272 104.811 120.892 106.727 119.196 108.786C118.276 109.903 114.085 117.576 116.64 117.112C119.027 116.678 120.616 113.886 122.565 112.619C124.684 111.243 126.92 110.037 129.11 108.786C131.265 107.554 134.109 107.044 136.313 105.688C138.423 104.389 142.017 101.079 144.5 101.079C146.725 101.079 141.944 93.6706 140.96 92.4051C139.184 90.1225 139 88.1003 139 85.241C134.856 83.1498 139.115 80.7635 136.313 77.9608C134.211 75.8589 133.679 76.3823 133.679 77.9607C133.679 80.2257 133.184 83.109 133.989 85.241C135.182 88.3989 137.343 92.0561 134.415 94.4962C133.597 95.1776 131.195 95.2463 130.891 94.0315C130.596 92.8497 128.32 87.0107 130.852 89.9654C132.42 91.7944 130.194 95.0349 130.194 93.4506" stroke="#5CA2D4" stroke-width="10" stroke-linecap="round"/>
<path d="M112.071 125.515C109.919 128.356 109.226 129.697 105.797 129.697C103.94 129.697 102.593 129.668 100.918 130.549C99.3024 131.4 97.1037 133.672 95.3417 133.88C94.1197 134.023 90.9044 135.016 90.3074 135.971C89.3932 137.434 87.2131 137.378 87.8291 139.611C88.5374 142.179 88.8305 145.68 90.6172 147.666C91.7259 148.898 91.8653 151.758 93.9476 152.003C94.8787 152.112 96.5027 156.356 96.697 157.231C97.102 159.053 97.7687 160.995 98.0911 162.768C98.5754 165.432 104.072 160.015 105.449 159.709C109.329 158.847 112.18 156.604 115.711 155.333C118.046 154.492 124.618 154.717 124.618 151.848C124.618 147.354 119.856 142.389 115.943 140.153C115.733 140.033 114.338 136.239 114.201 135.622C114.136 135.331 114.108 134.871 114.162 134.577C114.45 132.994 115.305 137.59 115.711 139.146C116.69 142.895 116.678 150.265 119.351 153.32C120.35 154.462 118.244 153.684 117.802 153.242C116.453 151.893 116.687 150.085 115.827 148.556C115.168 147.385 113.734 147.5 113.31 146.272C112.475 143.85 111.806 141.068 112.11 138.488C112.269 137.135 112.768 135.978 112.768 134.577C112.768 132.333 110.269 138.224 109.98 138.72C109.236 139.995 104.061 150.351 103.706 149.641C101.998 146.224 103.009 140.852 103.009 137.133C103.009 136.128 103.009 144.753 103.009 146.581C103.009 148.414 103.281 153.893 103.009 152.08C102.421 148.162 99.2482 144.994 98.1299 141.16C97.506 139.021 96.7164 137.341 95.3417 135.622C94.7254 134.852 94.7306 140.803 94.7995 141.392C95.8413 150.305 101.186 140.123 103.551 136.823C104.256 135.84 105.542 132.396 105.759 135.429C106.011 138.957 106.113 142.946 105.488 146.427C105.017 149.046 104.606 152.899 103.087 155.178C102.306 156.349 103.009 152.365 103.009 150.957C103.009 148.661 102.874 146.315 103.087 144.026C103.412 140.523 104.809 133.362 108.624 132.408C111.189 131.767 113.957 127.46 115.169 131.44C115.744 133.33 115.828 140.908 113.891 135.313C112.62 131.64 113.465 136.41 113.465 138.062" stroke="#5CA2D4" stroke-width="10" stroke-linecap="round"/>
<path d="M155.288 105.998C161.236 105.163 165.662 104.088 171.126 101.583C173.303 100.585 174.525 99.1052 176.548 97.9816C178.931 96.6576 181.376 94.8449 184.215 94.8449C185.574 94.8449 188.623 93.7517 189.792 93.1023C194.291 90.6025 184.612 91.1541 183.17 91.5146C178.674 92.6385 177.22 95.9425 173.953 98.3302C171.266 100.294 167.975 100.669 165.046 101.97C162.107 103.277 161.515 105.809 160.709 108.631C160.103 110.751 162.699 111.178 162.258 113.162C164.156 113.394 163.778 116.201 164.427 117.499C164.843 118.332 164.358 121.639 165.046 122.5C165.871 123.531 164.568 122.441 165.434 124.121C166.029 125.277 166.23 126.686 166.789 127.916C166.863 128.078 168.532 121.831 168.532 120.016C168.532 116.238 168.532 108.683 168.532 117.499C168.532 122.329 166.89 136.347 168.958 131.982C171.369 126.89 173.459 123.801 178.329 121.062C180.347 119.927 182.958 119.827 185.106 119.087C186.479 118.613 187.659 117.369 189.094 116.841C191.528 115.944 194.034 114.877 196.413 113.82C200 112.226 193.771 103.702 191.689 101.273C190.624 100.031 188.414 93.6023 187.042 98.0978C185.483 103.209 183.319 104.835 178.755 107.353C176.722 108.475 174.522 110.304 174.96 106.695C175.352 103.463 178.115 100.34 174.495 103.907C172.541 105.832 170.34 107.534 168.144 109.173C167.214 109.868 164.933 110.783 164.427 111.923C163.717 113.52 166.787 108.61 167.138 107.856C168.034 105.929 171.291 106.695 173.062 106.695C175.483 106.695 176.945 107.464 178.987 108.786C182.202 110.866 181.871 111.257 178.058 113.239C176.341 114.132 177.141 113.871 178.484 113.162C181.048 111.809 183.242 109.987 185.648 108.399C188.877 106.266 186.732 108.386 186.732 109.754C186.732 111.73 182.407 114.043 180.381 114.943C176.951 116.468 167.13 121.521 169.848 118.932C172.96 115.968 179.563 112.591 183.789 111.652C186.576 111.032 185.516 115.3 184.796 117.15C184.053 119.06 178.835 125.269 177.98 120.752C177.32 117.263 178.87 108.953 183.712 108.786C187.564 108.653 186.721 117.875 186.113 119.822C184.913 123.66 179.798 126.485 175.812 125.515C172.111 124.615 174.428 108.95 175.27 106.424C176.635 102.329 178.473 98.3302 183.17 98.3302C187.837 98.3302 182.423 111.94 181.388 113.665C178.272 118.859 173.523 119.362 167.989 119.242C165.374 119.185 164.805 117.414 165.124 115.021C165.781 110.089 172.787 105.219 176.741 102.822C179.151 101.362 180.046 110.696 176.896 112.271" stroke="#5CA2D4" stroke-width="10" stroke-linecap="round"/>
<path d="M109.283 154.791C110.698 146.123 111.713 154.174 107.889 151.306" stroke="#5CA2D4" stroke-width="10" stroke-linecap="round"/>
<path d="M169 132.941C175.304 131.59 179.503 128.58 185.032 125.816C189.873 123.395 202 117.5 200.5 118.5" stroke="#5CA2D4" stroke-width="10" stroke-linecap="round"/>
<path d="M73.8813 104.46C73.8813 105.386 74.5154 107.661 73.1019 107.578C72.0475 107.516 73.4528 105.742 73.6864 105.456C75.0904 103.74 76.7292 102.46 78.9475 102.144C81.1982 101.822 83.5746 101.37 85.5725 100.26C87.1718 99.3714 88.6575 98.3705 90.5521 98.2248C92.6501 98.0634 93.2437 96.6864 94.7307 95.4969C95.8279 94.6191 95.9256 96.0354 96.4843 97.3588C97.0422 98.6801 97.8183 100.325 98.6277 101.494C99.8971 103.328 101.291 105.209 102.633 107.015C103.791 108.574 104.226 110.342 105.664 111.865C106.607 112.863 107.283 114.895 107.786 116.151C108.788 118.656 104.763 119.234 102.698 119.854C99.6835 120.758 96.6337 121.032 93.6698 121.91C91.2648 122.623 87.1244 123.125 85.2694 124.812C84.1681 125.813 84.1961 127.116 83.0394 128.016C81.2674 129.394 86.1675 127.987 86.9148 127.648C88.415 126.966 89.9566 126.365 91.5047 125.807C92.1708 125.568 94.083 125.254 92.8254 124.876C89.7269 123.947 86.1651 123.806 83.2343 122.473C81.1593 121.53 77.4364 119.032 76.6092 116.758C76.1467 115.486 74.5579 113.511 75.0937 112.038C75.1319 111.933 83.925 106.883 84.3168 107.275C85.2022 108.16 83.2661 114.337 83.0394 115.697C83.0075 115.888 82.8366 117.313 82.8446 117.017C82.9025 114.875 83.0989 112.697 83.3209 110.566C83.4337 109.483 83.773 107.242 85.2694 107.188C88.5098 107.072 89.9492 110.84 90.2057 113.597C90.3148 114.769 90.4903 116.431 89.9892 117.537C89.0975 119.506 89.0626 117.702 89.1665 116.628C89.5172 113.004 90.1449 109.228 91.0284 105.694C91.318 104.536 92.1377 106.523 92.1976 106.712C92.9316 109.025 92.977 111.496 92.977 113.9C92.977 118.582 92.9186 114.002 93.0636 112.081C93.1503 110.932 94.1612 101.892 95.3152 106.755C95.9871 109.587 97.1465 113.559 96.1812 116.454C95.6179 118.144 96.2728 113.425 97.1339 112.644C99.6155 110.393 99.2286 117.626 99.1906 118.706C99.1112 120.971 98.5939 124.146 96.0946 125.028C95.674 125.177 95.6153 124.416 95.7699 124.184C96.0779 123.722 97.3426 123.946 97.8267 123.946C99.4988 123.946 94.4976 124.335 92.8254 124.335C92.1289 124.335 91.6586 124.428 91.0284 124.725C88.8711 125.74 91.7754 122.47 92.0244 122.213C95.1588 118.984 99.2125 116.661 103.131 114.528C103.797 114.165 104.465 113.804 105.145 113.467C105.738 113.172 106.604 112.248 107.006 112.774C107.118 112.92 106.841 113.107 106.725 113.25C106.221 113.87 105.13 114.896 104.603 115.372C102.756 117.041 97.2476 121.54 94.6224 118.793C92.9647 117.058 92.5873 113.754 92.5873 111.475C92.5873 107.891 93.7589 109.925 93.8863 112.514C94.143 117.733 89.4577 121.743 84.1869 119.875C82.2047 119.173 80.9704 115.726 80.4414 113.921C79.6271 111.143 81.27 108.605 82.9745 106.539C84.206 105.046 85.7083 103.642 87.218 105.434C89.2172 107.808 93.2566 117.867 88.9933 120.048C84.9894 122.097 85.3474 109.556 86.0705 107.773C86.2574 107.311 88.7087 102.938 89.4696 104.46" stroke="white" stroke-width="10" stroke-linecap="round"/>
<path d="M116.749 121.997C120.292 122.414 125.669 123.616 129.22 122.386C132.195 121.357 136.201 119.443 138.573 117.32C139.23 116.732 140.545 116.46 140.998 115.761C141.729 114.631 142.97 113.831 143.942 112.947C145.039 111.95 146.61 111.592 147.623 110.782C148.646 109.963 148.304 111.306 146.843 111.475C145.588 111.62 143.965 112.607 142.686 113.034C140.697 113.697 138.883 115.251 136.841 115.675C134.56 116.148 132.268 116.366 129.999 116.844C128.24 117.214 126.36 117.512 129.783 117.234C134.64 116.839 139.458 115.863 143.942 113.986C144.776 113.637 145.217 113.005 145.977 112.557C146.706 112.128 148.514 111.492 149.008 110.998C149.357 110.649 148.188 110.694 148.142 110.695C146.748 110.735 146.058 111.522 144.938 112.254C141.644 114.408 137.724 115.489 133.983 116.541C132.148 117.057 130.293 118.03 128.354 118.1C127.656 118.125 126.113 118.503 125.712 119.139C124.89 120.445 124.841 126.069 125.712 127.539C126.05 128.109 126.841 129.568 126.882 130.181C126.936 130.992 126.584 128.553 126.189 127.842C125.672 126.912 125.354 125.825 124.63 125.028C124.291 124.655 122.638 124.38 122.595 125.114C122.48 127.063 123.531 129.948 124.933 131.35C126.393 132.81 127.39 133.815 128.354 135.637C129.31 137.444 129.977 139.493 130.973 141.287C131.671 142.543 131.601 144.366 131.601 145.531C131.601 145.614 132.408 145.043 132.554 144.99C133.497 144.647 134.39 144.233 135.304 143.82C136.896 143.101 139.805 142.935 141.084 141.655C142.142 140.598 144.491 139.87 145.977 139.339C148.016 138.611 150.101 137.675 152.018 136.611C153.142 135.986 156.17 135.562 156.889 134.662C157.571 133.81 160.942 132.786 159.617 131.934C157.326 130.461 155.901 128.314 155.135 125.677C154.129 122.211 155.036 118.426 153.966 115.004C153.726 114.236 153.358 112.193 152.581 113.553C150.683 116.875 149.693 120.611 148.9 124.313C148.339 126.93 148.889 131.47 146.757 133.45C145.48 134.635 145.427 128.767 145.393 128.384C145.102 125.123 144.808 121.873 144.808 118.598C144.808 115.81 144.966 120.705 145.003 121.174C145.165 123.251 145.446 125.502 144.981 127.561C144.352 130.348 142.569 130.406 142.297 127.409C142.033 124.505 141.776 121.3 142.275 118.403C142.57 116.694 141.718 122.877 141.561 123.382C140.702 126.147 139.328 129.382 137.23 131.48C135.783 132.927 135.771 129.826 135.672 128.947C135.359 126.179 135.321 123.048 136.213 120.373C137.19 117.442 136.525 126.599 135.975 129.639C135.928 129.9 134.308 136.418 134.026 136.264C132.093 135.21 131.772 130.218 131.623 128.384C131.54 127.364 131.168 125.213 131.58 124.183C132.524 121.822 131.948 129.261 131.948 131.804C131.948 133.894 132.335 136.441 131.775 138.494C131.3 140.234 134.204 135.83 135.455 134.532C136.27 133.687 139.259 130.147 140.651 130.332C141.755 130.479 141.2 134.88 141.063 135.55C141.026 135.728 139.891 138.745 139.569 138.191C138.735 136.761 140.094 134.351 140.868 133.19C142.588 130.61 142.08 135.112 142.08 135.009C142.08 132.658 140.963 125.747 144.029 124.725" stroke="white" stroke-width="10" stroke-linecap="round"/>
<path d="M138.183 72.8935C143.871 70.674 149.518 68.7952 155.33 67.1345C159.409 65.9691 163.994 65.3574 167.801 63.4539C170.097 62.3058 172.087 62.0817 173.257 59.4486C173.692 58.4704 175.678 56.2501 172.867 57.1536C170.468 57.9247 168.517 59.2121 166.026 59.6651C164.663 59.9129 163.035 60.6359 161.76 61.2023C158.054 62.8495 164.813 61.2197 165.939 60.8126C172.495 58.4414 178.389 65.189 180.878 70.1655C181.901 72.2129 183 74.9917 183 77.3535C183 79.5762 186.122 82.6956 183.692 84.1084C181.883 85.1602 179.945 84.9776 178.15 85.7539C176.099 86.6406 173.736 87.2972 171.611 88.0055C168.046 89.1941 163.723 89.7631 160.396 91.4263C159.297 91.9761 157.143 92.9046 156.305 93.7429C155.549 94.4982 154.951 95.4966 153.966 95.4966C151.794 95.4966 151.645 93.3134 150.827 91.7943C150.341 90.8922 150.009 89.59 149.268 88.8932C148.286 87.9684 147.348 87.1838 146.583 86.057C144.866 83.5259 142.816 81.2995 143.942 78.0463C144.651 75.9985 146.049 75.2502 148.229 74.9286C148.627 74.8699 152.001 74.567 151.693 75.2751C151.107 76.6221 149.633 77.8207 148.575 78.7824C148.531 78.8229 146.226 80.6005 147.406 79.735C149.535 78.1736 151.876 76.9582 154.291 75.9029C155.358 75.4367 158.873 73.4142 160.18 73.8894C161.804 74.4802 156.007 80.7294 155.374 81.4021C154.317 82.5246 153.035 84.2405 153.035 81.597C153.035 79.6506 154.232 76.2057 156.413 75.5998C157.29 75.3562 156.385 77.5051 155.915 78.2845C154.543 80.5584 152.621 82.5285 150.589 84.2167C149.442 85.1695 146.884 87.6969 148.077 84.7146C150.087 79.6911 153.542 74.0748 157.214 70.0789C158.044 69.1756 158.834 68.0247 159.812 67.2644C160.535 66.7019 160.291 68.7541 160.288 68.7799C160.084 70.6833 159.318 72.3929 158.275 73.976C157.883 74.5707 155.519 77.7722 154.746 75.8813C153.274 72.2847 154.821 68.4956 156.911 65.554C158 64.0213 159.192 62.4499 160.526 61.1157C160.691 60.9514 161.794 60.1931 160.894 60.8559C159.326 62.0117 157.836 62.375 156.001 62.7828C154.113 63.2024 159.891 63.8441 161.284 65.1859C163.174 67.0062 162.355 70.9368 161.479 73.0018C160.557 75.1746 159.465 77.2727 158.513 79.4319C158.043 80.4966 157.888 80.8748 157.539 81.9217C157.366 82.4394 157.256 83.9268 156.976 83.4589C156.517 82.6938 159.857 78.553 160.007 78.3494C162.834 74.5062 165.968 70.8288 169.62 67.7407C170.94 66.6243 173.418 63.6047 173.56 66.8314C173.785 71.9527 169.304 77.7931 166.459 81.6836C165.091 83.5534 162.711 86.03 163.298 81.9867C163.897 77.8527 165.637 74.7168 168.017 71.4213C169.086 69.9423 165.868 74.3713 164.727 75.7947C162.013 79.1789 158.927 82.0327 155.46 84.628C155.422 84.6564 151.227 87.3256 151.26 87.1828C151.644 85.5046 154.377 83.4723 155.59 82.5063C156.438 81.831 162.885 76.5932 163.298 78.4793C163.817 80.8551 163.146 84.8278 160.743 86.1003C157.042 88.0593 165.726 79.0747 169.316 76.9205C172.062 75.2729 171.732 80.982 171.481 82.3764C170.976 85.1929 170.365 84.4406 172.001 81.965C172.672 80.9498 180.351 72.2949 181.332 74.2575C182.289 76.1712 180.401 79.9208 179.146 81.3155C178.189 82.3788 178.229 79.4972 178.345 78.9773C178.489 78.3279 179.593 79.7928 179.795 79.9948C180.469 80.6688 181.657 80.3841 182.523 81.164C183.167 81.7436 183.822 82.474 184.558 82.9393C185.462 83.5099 183.597 83.4617 183.216 83.5888C177.975 85.336 173.426 89.6229 167.974 90.7335C166.015 91.1326 164.106 91.5761 162.15 92.0108C160.408 92.3981 160.33 94.3926 158.664 94.6955C157.297 94.9441 155.965 95.2309 154.724 95.9079C153.589 96.527 152.213 97.2508 152.213 98.7658C152.213 99.1839 152.343 97.8603 152.667 97.5967C153.902 96.5933 154.261 95.5198 155.244 94.414C156.713 92.7614 158.654 90.1472 160.786 89.3478C163.389 88.3716 157.492 93.8282 155.893 96.1028C154.395 98.2333 154.303 97.4456 155.417 95.8863C158.817 91.1264 161.911 86.353 165.658 82.03C167.68 79.6969 174.379 73.2868 172.196 75.4699C171.098 76.568 169.663 77.3312 168.624 78.501C168.004 79.1984 167.803 74.3591 167.823 73.9111C167.865 72.9541 168.823 68.7916 169.923 71.5079C171.236 74.7522 170.277 78.6718 167.693 80.9691C165.726 82.7171 166.197 80.012 166.264 78.4144C166.325 76.9331 166.666 75.3503 168.191 74.842" stroke="white" stroke-width="10" stroke-linecap="round"/>
<path d="M123.582 89.4507C122.846 92.9669 122.204 96.5324 119.589 99.1476" stroke="black" stroke-width="3" stroke-linecap="round"/>
<path d="M131 94C129.173 96.2607 127.871 98.7902 126 101" stroke="black" stroke-width="3" stroke-linecap="round"/>
<path d="M188.608 95.7251C188.021 98.384 187.458 101.046 186.897 103.711" stroke="black" stroke-width="3" stroke-linecap="round"/>
<path d="M76.167 76.4762C74.0408 80.4511 72.7638 83.1908 70.7215 87.1856" stroke="black" stroke-width="3" stroke-linecap="round"/>
<path d="M8.5011 55.4895C12.4336 55.4895 16.034 55.9657 19.9306 55.9657" stroke="black" stroke-width="3" stroke-linecap="round"/>
<path d="M20.8831 54.0609C21.573 53.9263 25.0925 53.5847 24.5871 53.5847C23.3062 53.5847 22.1656 54.0609 20.8831 54.0609ZM20.8831 54.0609C18.6706 54.0609 17.2096 55.4896 14.7979 55.4896C12.5652 55.4896 16.7115 55.4896 17.1791 55.4896C19.497 55.4896 20.9708 55.216 23.1584 54.5371C25.2601 53.8849 28.9027 52.6283 30.196 50.9654C32.8313 47.5771 36.7871 45.946 40.4085 43.9543C42.3279 42.8986 43.508 42.8866 45.5411 42.261C46.3073 42.0253 47.2333 42.1552 48.0281 42.1552C49.7149 42.1552 44.6201 42.0482 42.9748 42.4198C40.2425 43.0367 37.3877 42.6789 34.7202 43.3458C32.9546 43.7872 31.0409 44.2488 29.2435 44.5363C25.8647 45.0769 23.2575 46.5635 20.4068 48.2403C18.7215 49.2317 17.4651 51.2796 15.5387 52.0502C15.1966 52.187 13.3555 52.9409 13.4751 53.4789C13.5702 53.9068 16.8166 53.5835 17.3378 53.3466C20.7047 51.8162 24.5693 51.2918 28.0265 49.5632C30.7344 48.2093 34.1641 48.9056 37.0749 48.2403C41.5659 47.2138 45.9636 46.9175 50.6474 46.9175C51.7833 46.9175 56.752 47.2664 53.981 45.7269C52.3348 44.8124 51.0485 43.8928 49.4568 42.8695C47.5808 41.6635 50.8827 43.5704 51.3882 43.8485C52.8117 44.6314 54.3132 45.3397 55.6742 46.2296C56.9942 47.0927 58.4542 47.6041 59.6957 48.5843C61.8513 50.286 59.4662 49.5577 57.9231 49.8807C51.913 51.1386 46.6392 54.7488 41.1493 56.9448C38.2856 58.0902 32.8512 64.1691 30.778 59.1936C30.4169 58.3269 29.7439 57.806 29.3494 56.9183C28.439 54.8701 31.0247 53.5471 32.63 52.6322C35.9311 50.751 39.7439 49.4815 40.8847 45.4888C41.6363 42.858 44.6019 42.6314 46.8375 42.6314C50.6315 42.6314 46.5994 40.7813 44.2183 41.5202C39.9199 42.8542 36.1431 46.162 32.5242 48.7166C31.4901 49.4465 29.4552 50.2738 29.4552 51.6798C29.4552 53.8168 25.8427 56.6418 26.1216 57.13C26.4506 57.7057 28.5115 57.8708 29.1112 57.8708C29.7512 57.8708 27.9452 57.3167 27.4444 56.9183C26.4803 56.1514 25.7463 55.2842 24.9575 54.3519C23.0966 52.1527 28.8013 52.2396 30.1431 52.1825C30.3816 52.1723 33.9809 52.2995 34.0058 52.0502C34.0536 51.5728 30.8286 50.0274 30.4076 49.7749" stroke="url(#paint1_linear)" stroke-width="10" stroke-linecap="round"/>
<path d="M16.1207 97.874C18.0591 99.2837 18.5002 99.5986 20.6714 99.8054C22.3817 99.9683 23.9725 100.301 24.6929 101.922C25.4892 103.714 31.5056 105.242 30.3018 103.695C29.7965 103.045 29.6196 101.829 29.4287 100.97C28.9195 98.6783 28.0265 105.651 28.0265 106.658C28.0265 108.107 27.8181 116.428 30.4076 115.971C32.96 115.52 30.6425 107.675 30.1959 106.208C29.7826 104.85 28.9789 103.334 28.9789 101.922C28.9789 99.4703 27.9821 99.6992 25.857 100.731C24.1575 101.557 23.0736 101.642 22.2059 103.377C21.1831 105.423 21.0452 109.777 21.3857 112.161C21.8835 115.645 24.7169 116.525 25.6453 119.542C26.0534 120.869 27.3031 121.879 27.9206 123.114C28.1812 123.635 28.193 124.213 28.5027 124.755C28.8079 125.289 29.703 122.213 29.8255 121.791C30.229 120.401 31.1316 114.486 33.9529 118.114C34.7799 119.177 35.574 120.792 35.6461 122.162C35.6829 122.861 36.1224 126.096 36.1224 123.749C36.1224 121.281 35.4711 117.953 34.2174 115.759C33.0699 113.751 33.7412 117.78 33.7412 118.802C33.7412 120.5 34.786 120.952 35.6461 122.268C36.755 123.963 37.5693 125.848 38.5035 127.665C39.2819 129.178 39.456 129.64 39.456 131.422C39.456 132.415 39.0705 134.422 39.7205 135.258C40.8904 136.762 42.3133 140.744 42.3133 142.64C42.3133 147.121 37.5984 134.708 37.0748 130.258C36.9739 129.4 34.6458 129.781 34.0058 129.781C32.2676 129.781 32.7887 133.651 32.7887 134.782C32.7887 137.357 31.2208 129.876 30.5134 127.4C29.6795 124.481 29.9314 128.664 29.9314 129.676C29.9314 134.227 31.5932 137.797 32.339 141.899C32.6813 143.782 34.8278 146.498 36.0165 147.984C37.2397 149.513 38.1791 153.357 38.53 155.286C39.1287 158.579 42.8942 157.403 45.1707 157.403C47.6457 157.403 50.5619 156.985 53.002 157.429C53.3757 157.497 54.9628 159.083 55.4096 158.726C57.4628 157.083 54.0133 150.525 53.5047 148.592C52.614 145.208 53.2884 141.942 51.7321 138.83C50.0159 135.397 45.6252 136.096 44.4828 139.835C42.8235 145.266 41.6953 149.325 45.4353 153.752C48.0725 156.873 46.744 153.648 48.2662 151.45C49.4569 149.73 49.2661 147.874 49.4832 145.92C49.8285 142.813 50.9976 140.02 53.2666 137.877C54.3575 136.847 55.6921 135.409 56.5737 137.613C57.392 139.658 57.7907 141.501 58.0553 143.618C58.3831 146.241 59.7999 149.713 60.7804 152.164C61.7617 154.617 62.3208 157.885 64.2199 159.784" stroke="#5CA2D4" stroke-width="10" stroke-linecap="round"/>
<path d="M69.4584 53.5845C68.1516 54.6054 66.9343 55.4842 66.5745 57.1033C66.4905 57.4816 65.9869 58.2735 65.6485 58.4526C64.1391 59.2517 62.7274 59.6591 61.0979 60.2517C59.4233 60.8606 57.3466 62.6328 55.6477 62.6328C53.8281 62.6328 50.7462 62.9988 49.1657 63.8499C47.9093 64.5264 46.3536 64.115 48.0281 64.9081C49.6691 65.6855 51.4042 65.4902 53.1872 65.4902C54.9475 65.4902 56.5512 65.7291 58.0289 64.9081C62.8915 62.2067 66.5274 58.3468 72.2099 58.3468C73.9383 58.3468 74.6701 57.1285 74.2207 55.3306C74.1209 54.9315 73.5449 55.8144 73.1624 55.9656C71.9049 56.4627 70.5338 56.4579 69.2202 56.7064C66.5363 57.2142 63.8196 57.3971 61.1773 58.0822C58.5955 58.7515 55.9395 59.0561 53.3724 59.8813C51.2174 60.5739 50.165 63.2617 48.2397 63.6117C47.5445 63.7381 44.3516 65.8783 45.5411 65.9664C47.8825 66.1399 49.9585 65.2681 52.2347 65.0404C55.6043 64.7035 58.9995 63.8849 62.2091 62.7387C64.7766 61.8217 68.3858 61.7979 69.9346 59.0876C70.2699 58.5008 71.7356 57.7933 72.3157 57.1826C73.0648 56.3941 73.6272 55.4272 74.2207 54.5369" stroke="#5CA2D4" stroke-width="10" stroke-linecap="round"/>
<path d="M108.985 5.48535C107.75 8.39291 104.583 9.27258 101.842 10.7239C100.516 11.4259 99.401 12.3508 98.0321 12.9992C97.2448 13.3721 95.9895 14.3671 95.1483 14.5072C93.0046 14.8645 91.7606 15.9538 89.6981 16.4122C88.2976 16.7234 83.8029 17.8673 87.1847 17.8673C90.8508 17.8673 94.4309 16.9052 97.9263 15.8566C100.32 15.1383 103.398 15.3939 105.652 14.4279C107.712 13.5449 109.393 11.8745 111.367 10.8297C112.185 10.3965 114.358 9.46903 114.859 8.63376C114.884 8.59182 113.079 9.29039 112.901 9.40101C109.433 11.5536 105.995 13.6631 102.265 15.3539C99.6896 16.5215 97.2231 17.3434 94.4869 17.8409C92.0149 18.2903 89.1088 17.8673 86.6026 17.8673C84.785 17.8673 85.8445 17.734 86.9201 18.3435C88.2888 19.1191 91.6421 20.1628 93.2698 20.2485C96.6678 20.4273 98.6898 23.6339 101.842 24.5345C104.45 25.2798 106.546 25.487 109.25 25.487C112.206 25.487 113.053 28.6042 115.758 28.8206C117.922 28.9937 119.93 30.606 122.32 30.7255C125.639 30.8915 127.285 29.7689 130.231 28.556C132.381 27.6705 133.617 26.6749 135.416 25.2753C137.079 23.982 139.589 23.6057 141.475 22.7883C143.926 21.7261 146.868 20.8034 148.962 19.0579C149.884 18.2898 154.32 17.4365 154.624 16.6767C154.762 16.331 152.887 16.4386 152.746 16.4386C151.142 16.4386 149.582 16.5435 148.063 15.9359C146.436 15.2851 144.57 14.1508 142.798 14.0575C140.121 13.9166 137.142 13.3063 134.596 12.523C132.9 12.0011 131.111 12.389 129.463 11.6763C127.85 10.9788 125.713 10.6048 123.987 10.2212C122.593 9.91141 121.806 8.14363 120.177 7.89295C118.39 7.61799 116.842 7.39027 114.991 7.39027C114.186 7.39027 111.27 6.77072 111.525 7.60193C113.079 12.6506 118.979 14.928 120.309 20.2485C120.544 21.1883 120.147 26.3621 118.775 25.0637C116.129 22.561 114.55 16.9081 110.996 15.592C110.226 15.3068 109.54 15.5646 110.097 16.4915C111.751 19.2492 114.502 20.7119 117.452 21.6771C119.755 22.4309 121.551 23.0087 118.193 21.4655C114.908 19.9566 111.645 18.4799 108.112 17.6557C105.38 17.018 112.541 16.7428 113.033 16.7032C116.252 16.4442 119.465 16.4386 122.69 16.4386C124.398 16.4386 126.392 16.1576 128.061 16.4915C129.399 16.7591 129.978 17.7153 130.654 18.7669C130.902 19.1526 132.382 19.296 131.924 19.296C130.076 19.296 128.271 19.5781 126.474 19.9839C123.95 20.5538 125.92 20.321 127.294 20.0368C128.38 19.8121 133.398 17.4322 134.173 18.6081C134.856 19.6465 133.425 21.7894 132.691 22.5238C131.947 23.2679 134.22 21.0498 135.125 20.513C136.673 19.5954 141.633 18.4095 139.887 17.9731C135.803 16.9519 129.952 18.7697 125.865 19.1902C121.929 19.5951 118.018 19.7722 114.065 19.7722C112.136 19.7722 108.882 20.062 107.795 18.1054C107.02 16.7114 107.283 17.1112 105.625 17.6292C104.078 18.1128 102.241 17.8673 100.625 17.8673C95.7921 17.8673 90.9593 17.8673 86.1264 17.8673C84.8822 17.8673 77.0147 18.5515 81.6287 17.4969C84.1457 16.9216 86.5712 16.0825 89.0896 15.301C89.9687 15.0281 91.5785 14.5337 92.4761 14.5337C93.3386 14.5337 90.7606 14.8623 89.9892 15.248C89.0959 15.6947 88.5743 15.9624 87.5551 15.9624" stroke="#5CA2D4" stroke-width="10" stroke-linecap="round"/>
<path d="M109.938 28.8208C110.722 29.8244 111.196 30.7257 112.504 30.7257C113.518 30.7257 110.476 30.7257 109.462 30.7257C106.81 30.7257 110.183 29.6509 110.89 29.297" stroke="#5CA2D4" stroke-width="10" stroke-linecap="round"/>
<path d="M5.24524 60.5039C6.84584 62.6807 8.01798 65.4061 8.81338 67.9911C9.13304 69.0301 9.08122 70.9051 9.74928 71.764C10.5791 72.8309 11.1818 73.3715 11.8551 74.718C13.1927 77.3932 15.542 78.9336 16.8271 81.825C17.7135 83.8195 19.3754 90.0017 19.4593 87.8206C19.6315 83.3427 19.0716 78.7084 18.2894 74.3085C17.8104 71.6141 16.3006 69.3458 16.3006 66.5873C16.3006 65.8382 15.0791 63.6626 16.4176 63.6626C18.7533 63.6626 21.1044 65.3918 23.1444 66.4118C25.5358 67.6075 28.7618 66.7732 31.2751 67.6109C34.1507 68.5695 36.9925 68.4006 39.9907 68.4006C41.677 68.4006 46.4749 68.9015 47.478 70.5064C48.5681 72.2507 51.695 72.3613 52.6254 74.4547C53.8986 77.3195 53.4262 80.6975 54.6142 83.6676C55.1125 84.9131 54.3602 86.3837 55.0237 87.6159C55.6799 88.8346 56.5865 90.0122 57.3635 91.1548C58.6558 93.0554 59.906 94.5367 61.0486 96.5363C61.7116 97.6964 62.2049 97.8562 63.5638 98.2911C64.3755 98.5508 61.2066 98.4081 60.6391 98.4081C59.4595 98.4081 58.2799 98.4081 57.1002 98.4081C54.8805 98.4081 61.1979 100.514 63.4176 100.514C67.2955 100.514 63.9056 98.9345 61.8382 98.9345C57.7534 98.9345 53.6686 98.9345 49.5837 98.9345C42.8316 98.9345 33.3694 97.0554 27.59 93.3776C25.5792 92.098 22.8198 91.3967 20.5122 91.0671C19.3349 90.8989 18.4612 91.1207 17.3535 90.6284C15.0493 89.6042 19.4167 89.6256 20.5122 89.049C22.8107 87.8392 24.3653 81.1794 24.9577 79.0465C25.2354 78.047 26.2826 73.5367 26.3324 74.3085C26.5402 77.5301 26.8973 80.8285 27.9409 83.9015C28.6351 85.9454 29.7358 87.9803 31.5676 89.2245C32.2494 89.6876 34.3657 90.6904 34.6093 89.283C35.2795 85.4106 30.967 74.3143 33.1469 77.5842C34.4509 79.5402 35.1152 82.4654 36.0131 84.6327C36.9017 86.7775 40.1517 92.6062 38.2944 91.2133C37.6558 90.7343 37.5193 89.8172 37.1538 89.1075C35.8388 86.555 34.3784 84.1113 32.8544 81.6788C31.1548 78.9658 29.4193 76.2384 27.356 73.7821C26.2775 72.4982 27.9163 76.4457 27.9994 76.5605C29.7163 78.9339 31.823 81.2066 33.7318 83.4336C34.8913 84.7863 37.4286 88.6253 39.3765 88.9905C40.3808 89.1788 39.9907 83.213 39.9907 82.5854C39.9907 80.3152 39.9509 78.0408 39.9907 75.7709C40.0204 74.0762 40.4656 72.1504 41.3946 75.1274C42.8272 79.7183 43.5605 87.8804 47.7704 91.1548C47.9137 91.2662 47.8454 88.5787 47.8289 88.4056C47.5986 85.9867 46.9101 83.5122 46.542 81.0938C46.4603 80.5563 45.3137 77.4798 45.3137 77.7889C45.3137 80.0036 46.6956 82.5383 47.8582 84.3402C49.5062 86.8947 50.06 86.4125 49.9932 89.7509C49.9192 93.452 46.9046 87.4046 46.7468 86.2998C46.7089 86.0347 50.3934 91.8567 49.4668 91.8567C48.7314 91.8567 46.0825 88.7033 45.7231 88.3471C42.0368 84.6934 38.5032 80.9976 35.1942 76.9992C34.0127 75.5716 32.6945 75.0387 31.3043 73.9575C29.8106 72.7957 34.9665 76.7978 35.2527 77.0285C38.0406 79.2755 40.9492 81.3869 43.5589 83.843C44.1832 84.4307 44.2268 84.8253 43.1494 84.6035C40.4396 84.0456 40.3962 83.8739 39.9907 81.0353" stroke="white" stroke-width="10" stroke-linecap="round"/>
<path d="M48.9403 34.1813C51.3881 38.1956 55.2522 39.2349 59.1768 36.0238C62.5142 33.2932 65.667 32.4912 69.7057 31.0226C73.0534 29.8052 76.3602 28.4241 79.4742 26.694C80.2594 26.2578 82.6021 24.7052 80.5271 24.7052C79.134 24.7052 77.8736 23.6523 76.3155 23.6523" stroke="white" stroke-width="10" stroke-linecap="round"/>
<path d="M74.7362 48.922C76.9641 51.0824 79.918 52.0807 82.8961 52.0807C85.9636 52.0807 88.0858 48.6504 90.5296 47.0794C95.7175 43.7443 102.709 41.8575 108.692 40.5281C112.183 39.7523 109.928 36.8137 107.259 36.8137C103.415 36.8137 100.367 38.7896 96.73 38.9195C94.7352 38.9907 93.4571 40.5493 91.5533 41.0253C89.8983 41.439 88.8494 42.2749 87.3709 43.0141C85.6378 43.8807 84.0891 45.7633 82.1065 45.7633" stroke="white" stroke-width="10" stroke-linecap="round"/>
<path d="M66.6009 106.446C59.3587 106.446 52.5146 107.875 45.2765 107.875C44.6304 107.875 42.8821 108.232 42.7895 107.398C42.7195 106.769 42.4549 104.974 41.837 104.647C40.5745 103.978 39.6863 103.131 38.6093 102.054C38.4897 101.935 37.3897 101.208 37.3922 101.207C38.9606 101.051 40.6317 101.207 42.2074 101.207C44.0594 101.207 45.9114 101.207 47.7634 101.207C50.8746 101.207 53.1888 101.769 56.1239 102.16C58.4145 102.465 51.4896 102.514 49.1921 102.266C46.6264 101.988 43.9353 101.207 41.3873 101.207C39.7732 101.207 38.4284 101.042 36.8631 100.758C36.1039 100.62 39.0474 104.909 39.4294 105.705C40.1918 107.293 40.8052 109.224 42.0751 110.494C42.6793 111.098 43.2657 111.995 43.2657 112.875C43.2657 114.619 44.338 124.066 46.3877 124.066C49.6214 124.066 48.5042 118.64 48.5042 116.447C48.5042 113.735 49.2037 114.791 50.1446 116.844C50.8531 118.39 51.3616 120.445 51.3616 122.162C51.3616 124.142 52.9776 125.971 50.171 125.971C47.23 125.971 56.0402 126.448 58.9813 126.448C60.7038 126.448 64.5595 127.832 62.1032 124.437C59.3906 120.687 57.1917 114.947 57.5526 110.256C57.6201 109.379 58.2826 111.87 58.7961 112.584C59.7473 113.907 61.1412 115.106 62.3149 116.235C62.6853 116.592 65.8937 119.223 66.4951 118.14C67.3654 116.574 66.2758 111.193 67.0772 112.796C67.9903 114.622 67.6811 117.316 68.1355 119.304C68.402 120.47 68.7549 122.346 69.5642 123.22C71.9862 125.836 70.2087 120.499 70.0404 119.304C69.6239 116.347 68.2776 107.597 68.0296 110.573C67.7029 114.494 69.7618 118.198 71.8395 121.315C72.7553 122.689 74.2206 125.074 74.2206 126.686C74.2206 128.207 76.8629 129.305 74.009 129.305C71.3493 129.305 69.036 127.876 66.3628 127.876C65.9795 127.876 63.7306 127.664 63.6113 127.903C63.4357 128.254 67.2547 128.829 67.7915 128.829C68.5852 128.829 69.379 128.829 70.1727 128.829C70.9845 128.829 71.2226 129.647 72.104 129.808C73.0202 129.974 74.0355 130.084 74.935 130.284C75.7751 130.471 77.5742 131.949 76.734 132.136C74.5001 132.632 70.3101 131.855 68.0826 131.422C65.6337 130.945 63.1428 130.469 60.6481 130.284C57.3567 130.04 53.2778 130.467 50.1975 129.067C48.3553 128.229 48.1355 126.166 46.1231 125.495" stroke="url(#paint2_linear)" stroke-width="10" stroke-linecap="round"/>
<path d="M59.9338 46.9175C65.5981 37.628 77.9703 38.8883 86.7084 33.5831C88.1594 32.7021 90.1613 32.139 91.7353 31.5723C93.249 31.0274 98.7916 28.51 94.09 30.5669C88.7007 32.9248 82.4752 34.7491 77.4484 37.8691C76.4074 38.5153 75.4677 39.3136 74.4588 40.0122C73.3105 40.8071 71.7123 40.9066 70.7018 41.9171C69.708 42.9109 68.4356 43.1639 67.3153 44.0601C65.9968 45.1149 71.3784 44.0336 71.7337 43.9543C73.8612 43.4794 76.3354 42.2758 78.5067 42.1552C80.0714 42.0683 81.9134 40.8976 83.269 40.1444C83.7448 39.8801 84.8326 38.6988 84.3273 38.9009C80.7641 40.3262 77.3661 42.6272 73.9032 44.3247C68.6481 46.9007 63.1418 48.2452 57.7907 50.4892C53.6882 52.2096 49.0104 53.4765 45.2765 55.9658C43.8554 56.9132 40.7813 58.5543 39.9322 60.0402C38.5003 62.5461 43.5253 59.0399 44.2182 58.347" stroke="url(#paint3_linear)" stroke-width="10" stroke-linecap="round"/>
<path d="M3 56.5L21 61.568M3 56.5L14.1962 92.5M3 56.5L43.5 36.6285M54.5 71L37.75 66.284M54.5 71L69 103.333M54.5 71L82.4734 56.5M94 168.5L35.5 160.5L24.8481 126.75M94 168.5L130.5 152.357M94 168.5L81 136.5M163.5 14.5L177.842 49.75M163.5 14.5L82.4734 56.5M163.5 14.5L144.25 10.722M130.5 152.357L205 116.5L192.184 85M130.5 152.357L166.5 135.03L121.5 37.5L76.75 20.3143M130.5 152.357L82.4734 56.5M82.4734 56.5L43.5 36.6285M21 61.568L54.5 163.128L70.5 164.92L37.75 66.284M21 61.568L37.75 66.284M21 61.568L125 6.94393M37.75 66.284L144.25 10.722M14.1962 92.5L69 103.333M14.1962 92.5L24.8481 126.75M69 103.333L81 136.5M69 103.333L177.842 49.75M81 136.5L24.8481 126.75M81 136.5L192.184 85M192.184 85L177.842 49.75M43.5 36.6285L76.75 20.3143M76.75 20.3143L110 4L125 6.94393M125 6.94393L144.25 10.722" stroke="black" stroke-width="3"/>
<defs>
<linearGradient id="paint0_linear" x1="115.891" y1="19.6516" x2="115.891" y2="96.1149" gradientUnits="userSpaceOnUse">
<stop stop-color="#816CDE"/>
<stop offset="1" stop-color="#1DFFC3"/>
</linearGradient>
<linearGradient id="paint1_linear" x1="37.0132" y1="41.3459" x2="37.0132" y2="61.1242" gradientUnits="userSpaceOnUse">
<stop stop-color="#816CDE"/>
<stop offset="1" stop-color="#1DFFC3"/>
</linearGradient>
<linearGradient id="paint2_linear" x1="56.8454" y1="100.754" x2="56.8454" y2="132.296" gradientUnits="userSpaceOnUse">
<stop stop-color="#816CDE"/>
<stop offset="1" stop-color="#1DFFC3"/>
</linearGradient>
<linearGradient id="paint3_linear" x1="67.8104" y1="29.7712" x2="67.8104" y2="60.9308" gradientUnits="userSpaceOnUse">
<stop stop-color="#816CDE"/>
<stop offset="1" stop-color="#1DFFC3"/>
</linearGradient>
</defs>
</svg>
